<svg width="400" height="400" viewBox="0 0 400 400" fill="none" xmlns="http://www.w3.org/2000/svg">
<g clip-path="url(#clip0_0_1)">
<mask id="path-1-inside-1_0_1" fill="white">
<path d="M382 400C372.059 400 364 391.941 364 382L364 18C364 8.05887 372.059 -9.53674e-06 382 -9.53674e-06V-9.53674e-06C391.941 -9.53674e-06 400 8.05887 400 18L400 382C400 391.941 391.941 400 382 400V400Z"/>
</mask>
<path d="M400 382L400 18H328L328 382L400 382ZM364 18L364 382H436L436 18H364ZM364 382C364 372.059 372.059 364 382 364V436C411.823 436 436 411.823 436 382H364ZM382 36C372.059 36 364 27.9411 364 18H436C436 -11.8234 411.823 -36 382 -36V36ZM400 18C400 27.9411 391.941 36 382 36V-36C352.177 -36 328 -11.8234 328 18H400ZM328 382C328 411.823 352.177 436 382 436V364C391.941 364 400 372.059 400 382L328 382Z" fill="#009966" mask="url(#path-1-inside-1_0_1)"/>
<path d="M18 243L18 157C18 140.431 31.4315 127 48 127L244 127C260.569 127 274 140.431 274 157V243C274 259.569 260.569 273 244 273L48 273C31.4315 273 18 259.569 18 243Z" stroke="#009966" stroke-width="36"/>
</g>
<defs>
<clipPath id="clip0_0_1">
<rect width="400" height="400" fill="white" transform="translate(0 400) rotate(-90)"/>
</clipPath>
</defs>
</svg>
