<svg width="400" height="400" viewBox="0 0 400 400" fill="none" xmlns="http://www.w3.org/2000/svg">
<mask id="path-1-inside-1_0_1" fill="white">
<path d="M400 18C400 27.9411 391.941 36 382 36L18 36C8.05887 36 -9.53674e-06 27.9411 -9.53674e-06 18V18C-9.53674e-06 8.05887 8.05887 -5.66244e-07 18 -5.66244e-07L382 -5.66244e-07C391.941 -5.66244e-07 400 8.05887 400 18V18Z"/>
</mask>
<path d="M382 0L18 0V72L382 72L382 0ZM18 36L382 36V-36L18 -36V36ZM382 36C372.059 36 364 27.9411 364 18L436 18C436 -11.8234 411.823 -36 382 -36V36ZM36 18C36 27.9411 27.9411 36 18 36V-36C-11.8234 -36 -36 -11.8234 -36 18L36 18ZM18 0C27.9411 0 36 8.05886 36 18L-36 18C-36 47.8234 -11.8234 72 18 72V0ZM382 72C411.823 72 436 47.8234 436 18L364 18C364 8.05887 372.059 0 382 0L382 72Z" fill="#009966" mask="url(#path-1-inside-1_0_1)"/>
<path d="M243 382H157C140.431 382 127 368.569 127 352L127 156C127 139.431 140.431 126 157 126H243C259.569 126 273 139.431 273 156L273 352C273 368.569 259.569 382 243 382Z" stroke="#009966" stroke-width="36"/>
</svg>
