<svg width="400" height="400" viewBox="0 0 400 400" fill="none" xmlns="http://www.w3.org/2000/svg">
<path d="M18 243L18 157C18 140.431 31.4315 127 48 127H244C260.569 127 274 140.431 274 157V243C274 259.569 260.569 273 244 273H48C31.4315 273 18 259.569 18 243Z" stroke="#009966" stroke-width="36"/>
<path d="M382 391C377.029 391 373 386.971 373 382V18C373 13.0295 377.029 9.00001 382 9.00001V9.00001C386.971 9.00001 391 13.0294 391 18V382C391 386.971 386.971 391 382 391V391Z" stroke="#009966" stroke-width="18"/>
</svg>
