<svg width="400" height="400" viewBox="0 0 400 400" fill="none" xmlns="http://www.w3.org/2000/svg">
<mask id="path-1-inside-1_0_1" fill="white">
<path d="M0 382C0 372.059 8.05888 364 18 364H382C391.941 364 400 372.059 400 382V382C400 391.941 391.941 400 382 400H18C8.05888 400 0 391.941 0 382V382Z"/>
</mask>
<path d="M18 400H382V328H18V400ZM382 364H18V436H382V364ZM18 364C27.9411 364 36 372.059 36 382H-36C-36 411.823 -11.8234 436 18 436V364ZM364 382C364 372.059 372.059 364 382 364V436C411.823 436 436 411.823 436 382H364ZM382 400C372.059 400 364 391.941 364 382H436C436 352.177 411.823 328 382 328V400ZM18 328C-11.8234 328 -36 352.177 -36 382H36C36 391.941 27.9411 400 18 400V328Z" fill="#009966" mask="url(#path-1-inside-1_0_1)"/>
<path d="M157 18L243 18C259.569 18 273 31.4315 273 48V244C273 260.569 259.569 274 243 274H157C140.431 274 127 260.569 127 244V48C127 31.4315 140.431 18 157 18Z" stroke="#009966" stroke-width="36"/>
</svg>
