<svg width="400" height="400" viewBox="0 0 400 400" fill="none" xmlns="http://www.w3.org/2000/svg">
<g clip-path="url(#clip0_0_1)">
<mask id="path-1-inside-1_0_1" fill="white">
<path d="M18 0C27.9411 0 36 8.05888 36 18L36 382C36 391.941 27.9411 400 18 400V400C8.05887 400 -5.66244e-07 391.941 -5.66244e-07 382L-5.66244e-07 18C-5.66244e-07 8.05888 8.05887 0 18 0V0Z"/>
</mask>
<path d="M0 18L0 382H72L72 18L0 18ZM36 382L36 18L-36 18L-36 382H36ZM36 18C36 27.9411 27.9411 36 18 36L18 -36C-11.8234 -36 -36 -11.8234 -36 18L36 18ZM18 364C27.9411 364 36 372.059 36 382H-36C-36 411.823 -11.8234 436 18 436L18 364ZM0 382C0 372.059 8.05886 364 18 364L18 436C47.8234 436 72 411.823 72 382H0ZM72 18C72 -11.8234 47.8234 -36 18 -36L18 36C8.05887 36 0 27.9411 0 18L72 18Z" fill="#009966" mask="url(#path-1-inside-1_0_1)"/>
<path d="M382 157V243C382 259.569 368.569 273 352 273L156 273C139.431 273 126 259.569 126 243V157C126 140.431 139.431 127 156 127L352 127C368.569 127 382 140.431 382 157Z" stroke="#009966" stroke-width="36"/>
</g>
<defs>
<clipPath id="clip0_0_1">
<rect width="400" height="400" fill="white" transform="translate(400) rotate(90)"/>
</clipPath>
</defs>
</svg>
