<svg width="400" height="400" viewBox="0 0 400 400" fill="none" xmlns="http://www.w3.org/2000/svg">
<path d="M382 56H18C13.0294 56 9 60.0294 9 65C9 69.9706 13.0294 74 18 74H382C386.971 74 391 69.9706 391 65C391 60.0294 386.971 56 382 56Z" stroke="#009966" stroke-width="18"/>
<path d="M332 146H68C63.0294 146 59 150.029 59 155C59 159.971 63.0294 164 68 164H332C336.971 164 341 159.971 341 155C341 150.029 336.971 146 332 146Z" stroke="#009966" stroke-width="18"/>
<path d="M382 236H18C13.0294 236 9 240.029 9 245C9 249.971 13.0294 254 18 254H382C386.971 254 391 249.971 391 245C391 240.029 386.971 236 382 236Z" stroke="#009966" stroke-width="18"/>
<path d="M332 326H68C63.0294 326 59 330.029 59 335C59 339.971 63.0294 344 68 344H332C336.971 344 341 339.971 341 335C341 330.029 336.971 326 332 326Z" stroke="#009966" stroke-width="18"/>
</svg>
