<svg width="400" height="400" viewBox="0 0 400 400" fill="none" xmlns="http://www.w3.org/2000/svg">
<path d="M243 382H157C140.431 382 127 368.569 127 352L127 156C127 139.431 140.431 126 157 126H243C259.569 126 273 139.431 273 156V352C273 368.569 259.569 382 243 382Z" stroke="#009966" stroke-width="36"/>
<path d="M391 18C391 22.9706 386.971 27 382 27L18 27C13.0295 27 9.00001 22.9706 9.00001 18V18C9.00001 13.0294 13.0294 9 18 9L382 9C386.971 9 391 13.0294 391 18V18Z" stroke="#009966" stroke-width="18"/>
</svg>
