<svg width="400" height="400" viewBox="0 0 400 400" fill="none" xmlns="http://www.w3.org/2000/svg">
<mask id="path-1-inside-1_0_1" fill="white">
<path d="M14 90C14 80.0589 22.0589 72 32 72H367C376.941 72 385 80.0589 385 90V90C385 99.9411 376.941 108 367 108H32C22.0589 108 14 99.9411 14 90V90Z"/>
</mask>
<path d="M32 108H367V36H32V108ZM367 72H32V144H367V72ZM32 72C41.9411 72 50 80.0589 50 90H-22C-22 119.823 2.17663 144 32 144V72ZM349 90C349 80.0589 357.059 72 367 72V144C396.823 144 421 119.823 421 90H349ZM367 108C357.059 108 349 99.9411 349 90H421C421 60.1766 396.823 36 367 36V108ZM32 36C2.17662 36 -22 60.1766 -22 90H50C50 99.9411 41.9411 108 32 108V36Z" fill="#009966" mask="url(#path-1-inside-1_0_1)"/>
<path d="M48 18H352C368.569 18 382 31.4315 382 48V352C382 368.569 368.569 382 352 382H48C31.4315 382 18 368.569 18 352V48C18 31.4315 31.4315 18 48 18Z" stroke="#009966" stroke-width="36"/>
</svg>
