<svg width="400" height="400" viewBox="0 0 400 400" fill="none" xmlns="http://www.w3.org/2000/svg">
<g clip-path="url(#clip0_0_1)">
<path d="M179.977 257.725L140.874 296.828C130.368 307.334 130.368 324.368 140.874 334.874L179.977 373.977C190.483 384.483 207.517 384.483 218.023 373.977L257.126 334.874C267.632 324.368 267.632 307.334 257.126 296.828L218.023 257.725C207.517 247.219 190.483 247.219 179.977 257.725Z" stroke="#009966" stroke-width="36" stroke-linecap="round" stroke-linejoin="round"/>
<path d="M295.198 142.245L256.095 181.347C245.589 191.854 245.589 208.887 256.095 219.393L295.198 258.496C305.704 269.002 322.738 269.002 333.244 258.496L372.347 219.393C382.853 208.887 382.853 191.854 372.347 181.347L333.244 142.245C322.738 131.739 305.704 131.739 295.198 142.245Z" stroke="#009966" stroke-width="36" stroke-linecap="round" stroke-linejoin="round"/>
<path d="M180.004 27.0498L140.901 66.1527C130.395 76.6588 130.395 93.6925 140.901 104.199L180.004 143.301C190.51 153.808 207.543 153.808 218.049 143.301L257.152 104.199C267.658 93.6925 267.658 76.6588 257.152 66.1527L218.049 27.0498C207.543 16.5437 190.51 16.5437 180.004 27.0498Z" stroke="#009966" stroke-width="36" stroke-linecap="round" stroke-linejoin="round"/>
<path d="M64.8084 142.245L25.7056 181.347C15.1995 191.854 15.1995 208.887 25.7056 219.393L64.8084 258.496C75.3145 269.002 92.3483 269.002 102.854 258.496L141.957 219.393C152.463 208.887 152.463 191.854 141.957 181.347L102.854 142.245C92.3483 131.739 75.3145 131.739 64.8084 142.245Z" stroke="#009966" stroke-width="36" stroke-linecap="round" stroke-linejoin="round"/>
</g>
<defs>
<clipPath id="clip0_0_1">
<rect width="400" height="400" fill="white"/>
</clipPath>
</defs>
</svg>
