<svg width="400" height="400" viewBox="0 0 400 400" fill="none" xmlns="http://www.w3.org/2000/svg">
<path d="M36 93H364C373.941 93 382 101.059 382 111V289C382 298.941 373.941 307 364 307H36C26.0589 307 18 298.941 18 289V111C18 101.059 26.0589 93 36 93Z" stroke="#009966" stroke-width="36"/>
<mask id="path-2-inside-1_0_1" fill="white">
<path d="M104 253C104 243.059 112.059 235 122 235H276C285.941 235 294 243.059 294 253V253C294 262.941 285.941 271 276 271H122C112.059 271 104 262.941 104 253V253Z"/>
</mask>
<path d="M122 271H276V199H122V271ZM276 235H122V307H276V235ZM122 235C131.941 235 140 243.059 140 253H68C68 282.823 92.1766 307 122 307V235ZM258 253C258 243.059 266.059 235 276 235V307C305.823 307 330 282.823 330 253H258ZM276 271C266.059 271 258 262.941 258 253H330C330 223.177 305.823 199 276 199V271ZM122 199C92.1766 199 68 223.177 68 253H140C140 262.941 131.941 271 122 271V199Z" fill="#009966" mask="url(#path-2-inside-1_0_1)"/>
<path d="M61 145C61 140.029 65.0294 136 70 136V136C74.9706 136 79 140.029 79 145V145C79 149.971 74.9706 154 70 154V154C65.0294 154 61 149.971 61 145V145Z" stroke="#009966" stroke-width="18"/>
<path d="M113 145C113 140.029 117.029 136 122 136V136C126.971 136 131 140.029 131 145V145C131 149.971 126.971 154 122 154V154C117.029 154 113 149.971 113 145V145Z" stroke="#009966" stroke-width="18"/>
<path d="M165 145C165 140.029 169.029 136 174 136V136C178.971 136 183 140.029 183 145V145C183 149.971 178.971 154 174 154V154C169.029 154 165 149.971 165 145V145Z" stroke="#009966" stroke-width="18"/>
<path d="M216 145C216 140.029 220.029 136 225 136V136C229.971 136 234 140.029 234 145V145C234 149.971 229.971 154 225 154V154C220.029 154 216 149.971 216 145V145Z" stroke="#009966" stroke-width="18"/>
<path d="M268 145C268 140.029 272.029 136 277 136V136C281.971 136 286 140.029 286 145V145C286 149.971 281.971 154 277 154V154C272.029 154 268 149.971 268 145V145Z" stroke="#009966" stroke-width="18"/>
<path d="M61 201C61 196.029 65.0294 192 70 192V192C74.9706 192 79 196.029 79 201V201C79 205.971 74.9706 210 70 210V210C65.0294 210 61 205.971 61 201V201Z" stroke="#009966" stroke-width="18"/>
<path d="M61 253C61 248.029 65.0294 244 70 244V244C74.9706 244 79 248.029 79 253V253C79 257.971 74.9706 262 70 262V262C65.0294 262 61 257.971 61 253V253Z" stroke="#009966" stroke-width="18"/>
<path d="M113 201C113 196.029 117.029 192 122 192V192C126.971 192 131 196.029 131 201V201C131 205.971 126.971 210 122 210V210C117.029 210 113 205.971 113 201V201Z" stroke="#009966" stroke-width="18"/>
<path d="M165 201C165 196.029 169.029 192 174 192V192C178.971 192 183 196.029 183 201V201C183 205.971 178.971 210 174 210V210C169.029 210 165 205.971 165 201V201Z" stroke="#009966" stroke-width="18"/>
<path d="M216 201C216 196.029 220.029 192 225 192V192C229.971 192 234 196.029 234 201V201C234 205.971 229.971 210 225 210V210C220.029 210 216 205.971 216 201V201Z" stroke="#009966" stroke-width="18"/>
<path d="M268 201C268 196.029 272.029 192 277 192V192C281.971 192 286 196.029 286 201V201C286 205.971 281.971 210 277 210V210C272.029 210 268 205.971 268 201V201Z" stroke="#009966" stroke-width="18"/>
<path d="M320 145C320 140.029 324.029 136 329 136V136C333.971 136 338 140.029 338 145V145C338 149.971 333.971 154 329 154V154C324.029 154 320 149.971 320 145V145Z" stroke="#009966" stroke-width="18"/>
<path d="M320 201C320 196.029 324.029 192 329 192V192C333.971 192 338 196.029 338 201V201C338 205.971 333.971 210 329 210V210C324.029 210 320 205.971 320 201V201Z" stroke="#009966" stroke-width="18"/>
<path d="M320 253C320 248.029 324.029 244 329 244V244C333.971 244 338 248.029 338 253V253C338 257.971 333.971 262 329 262V262C324.029 262 320 257.971 320 253V253Z" stroke="#009966" stroke-width="18"/>
</svg>
