<svg width="400" height="400" viewBox="0 0 400 400" fill="none" xmlns="http://www.w3.org/2000/svg">
<path d="M112.345 189H286.655C299.548 189 310 199.523 310 212.505V317.495C310 330.477 299.548 341 286.655 341H112.345C99.452 341 89 330.477 89 317.495V212.505C89 199.523 99.452 189 112.345 189Z" stroke="#009966" stroke-width="36"/>
<path d="M275 133C275 113.109 267.099 94.0322 253.033 79.9671C238.968 65.9018 219.891 58 200 58C180.109 58 161.032 65.9018 146.967 79.967C132.902 94.0322 125 113.109 125 133" stroke="#009966" stroke-width="36"/>
<path d="M275 189C270.029 189 266 184.971 266 180V130C266 125.029 270.029 121 275 121V121C279.971 121 284 125.029 284 130V180C284 184.971 279.971 189 275 189V189Z" stroke="#009966" stroke-width="18"/>
<path d="M125 189C120.029 189 116 184.971 116 180V133C116 128.029 120.029 124 125 124V124C129.971 124 134 128.029 134 133V180C134 184.971 129.971 189 125 189V189Z" stroke="#009966" stroke-width="18"/>
</svg>
