<svg width="400" height="400" viewBox="0 0 400 400" fill="none" xmlns="http://www.w3.org/2000/svg">
<path d="M88 188H312C328.569 188 342 201.431 342 218V352C342 368.569 328.569 382 312 382H88C71.4315 382 58 368.569 58 352V218C58 201.431 71.4315 188 88 188Z" stroke="#009966" stroke-width="36"/>
<path d="M296 115.147C296 89.6473 285.886 65.1919 267.882 47.1609C249.879 29.1298 225.461 19 200 19C174.539 19 150.121 29.1298 132.118 47.1608C114.115 65.1919 104 89.6473 104 115.147" stroke="#009966" stroke-width="36"/>
<path d="M296 191C291.029 191 287 186.971 287 182V113C287 108.029 291.029 104 296 104V104C300.971 104 305 108.029 305 113V182C305 186.971 300.971 191 296 191V191Z" stroke="#009966" stroke-width="18"/>
<path d="M104 191C99.0294 191 95 186.971 95 182V113C95 108.029 99.0294 104 104 104V104C108.971 104 113 108.029 113 113V182C113 186.971 108.971 191 104 191V191Z" stroke="#009966" stroke-width="18"/>
</svg>
