<svg width="400" height="400" viewBox="0 0 400 400" fill="none" xmlns="http://www.w3.org/2000/svg">
<path d="M88 188H312C328.569 188 342 201.431 342 218V352C342 368.569 328.569 382 312 382H88C71.4315 382 58 368.569 58 352V218C58 201.431 71.4315 188 88 188Z" stroke="#009966" stroke-width="36"/>
<path d="M296.294 115.147C296.294 89.6473 286.165 65.1919 268.133 47.1609C250.102 29.1298 225.647 19 200.147 19C174.647 19 150.192 29.1298 132.161 47.1608C114.13 65.1919 104 89.6473 104 115.147" stroke="#009966" stroke-width="36"/>
<mask id="path-3-inside-1_0_1" fill="white">
<path d="M104 188.43C94.0589 188.43 86 180.371 86 170.43V115.843C86 105.902 94.0589 97.843 104 97.843V97.843C113.941 97.843 122 105.902 122 115.843V170.43C122 180.371 113.941 188.43 104 188.43V188.43Z"/>
</mask>
<path d="M122 170.43V115.843H50L50 170.43H122ZM86 115.843V170.43H158V115.843H86ZM86 170.43C86 160.489 94.0588 152.43 104 152.43V224.43C133.823 224.43 158 200.253 158 170.43H86ZM104 133.843C94.0589 133.843 86 125.784 86 115.843H158C158 86.0196 133.823 61.843 104 61.843V133.843ZM122 115.843C122 125.784 113.941 133.843 104 133.843V61.843C74.1766 61.843 50 86.0197 50 115.843H122ZM50 170.43C50 200.253 74.1766 224.43 104 224.43V152.43C113.941 152.43 122 160.489 122 170.43H50Z" fill="#009966" mask="url(#path-3-inside-1_0_1)"/>
<mask id="path-5-inside-2_0_1" fill="white">
<path d="M296 187.099C286.059 187.099 278 179.04 278 169.099V109.843C278 99.9019 286.059 91.843 296 91.843V91.843C305.941 91.843 314 99.9019 314 109.843V169.099C314 179.04 305.941 187.099 296 187.099V187.099Z"/>
</mask>
<path d="M314 169.099V109.843H242V169.099H314ZM278 109.843V169.099H350V109.843H278ZM278 169.099C278 159.158 286.059 151.099 296 151.099V223.099C325.823 223.099 350 198.923 350 169.099H278ZM296 127.843C286.059 127.843 278 119.784 278 109.843H350C350 80.0196 325.823 55.843 296 55.843V127.843ZM314 109.843C314 119.784 305.941 127.843 296 127.843V55.843C266.177 55.843 242 80.0197 242 109.843H314ZM242 169.099C242 198.923 266.177 223.099 296 223.099V151.099C305.941 151.099 314 159.158 314 169.099H242Z" fill="#009966" mask="url(#path-5-inside-2_0_1)"/>
</svg>
