<svg width="400" height="400" viewBox="0 0 400 400" fill="none" xmlns="http://www.w3.org/2000/svg">
<g clip-path="url(#clip0_72_13)">
<path d="M80.7562 235.527L123.272 276.193Z" fill="#D8D8D8"/>
<path d="M80.7562 235.527L123.272 276.193" stroke="#009966" stroke-width="36" stroke-linecap="round" stroke-linejoin="round"/>
<path d="M49.9999 49.7071L305.265 303.558" stroke="#009966" stroke-width="36" stroke-linecap="round" stroke-linejoin="round"/>
<path fill-rule="evenodd" clip-rule="evenodd" d="M254.698 177.074L339.787 91.985C360.875 70.8965 360.875 36.7055 339.787 15.6171C318.698 -5.47133 284.508 -5.47133 263.419 15.6171L178.181 100.855L203.686 126.261L288.875 41.073C295.904 34.0434 307.302 34.0434 314.331 41.073C321.361 48.1025 321.361 59.4996 314.331 66.5291L229.192 151.668L254.698 177.074ZM178.231 151.717L73.5967 256.351L53.5837 301.364L99.2576 281.603L203.736 177.124L229.242 202.53L122.407 309.365C121.155 310.617 119.726 311.677 118.165 312.511L117.486 312.874C117.049 313.108 116.602 313.323 116.147 313.52L25.5435 352.72C18.7373 355.665 10.8218 354.134 5.60442 348.864C0.386995 343.594 -1.06438 335.664 1.94842 328.887L42.0524 238.687C42.9206 236.735 44.1296 234.952 45.6227 233.423L45.9567 233.081C45.9891 233.048 46.0217 233.015 46.0544 232.982L46.1061 232.93L152.725 126.311L178.231 151.717Z" fill="#009966"/>
</g>
<defs>
<clipPath id="clip0_72_13">
<rect width="400" height="400" fill="white"/>
</clipPath>
</defs>
</svg>
