<svg width="400" height="400" viewBox="0 0 400 400" fill="none" xmlns="http://www.w3.org/2000/svg">
<path d="M78 178H322C338.569 178 352 191.431 352 208V352C352 368.569 338.569 382 322 382H78C61.4315 382 48 368.569 48 352V208C48 191.431 61.4315 178 78 178Z" stroke="#009966" stroke-width="36"/>
<path d="M48 94H352C368.569 94 382 107.431 382 124V148C382 164.569 368.569 178 352 178H48C31.4315 178 18 164.569 18 148V124C18 107.431 31.4315 94 48 94Z" stroke="#009966" stroke-width="36"/>
<path d="M200 390C195.029 390 191 385.971 191 381V187C191 182.029 195.029 178 200 178V178C204.971 178 209 182.029 209 187V381C209 385.971 204.971 390 200 390V390Z" stroke="#009966" stroke-width="18"/>
<path d="M205.364 94.2707C201.849 90.756 201.849 85.0575 205.364 81.5428L273.881 13.026C277.395 9.51127 283.094 9.51127 286.609 13.026V13.026C290.123 16.5407 290.123 22.2392 286.609 25.7539L218.092 94.2707C214.577 97.7854 208.879 97.7854 205.364 94.2707V94.2707Z" stroke="#009966" stroke-width="18"/>
<path d="M110.085 12.0847C113.599 8.56995 119.298 8.56995 122.813 12.0847L191.271 80.5428C194.786 84.0575 194.786 89.756 191.271 93.2707V93.2707C187.756 96.7854 182.058 96.7854 178.543 93.2707L110.085 24.8126C106.57 21.2979 106.57 15.5994 110.085 12.0847V12.0847Z" stroke="#009966" stroke-width="18"/>
</svg>
