<svg width="400" height="400" viewBox="0 0 400 400" fill="none" xmlns="http://www.w3.org/2000/svg">
<g clip-path="url(#clip0_0_1)">
<path d="M78 178H322C338.569 178 352 191.431 352 208V352C352 368.569 338.569 382 322 382H78C61.4315 382 48 368.569 48 352V208C48 191.431 61.4315 178 78 178Z" stroke="#009966" stroke-width="36"/>
<path d="M48 94H352C368.569 94 382 107.431 382 124V148C382 164.569 368.569 178 352 178H48C31.4315 178 18 164.569 18 148V124C18 107.431 31.4315 94 48 94Z" stroke="#009966" stroke-width="36"/>
<mask id="path-3-inside-1_0_1" fill="white">
<path d="M197.728 103.066C190.698 96.0366 190.698 84.6396 197.728 77.6102L265.61 9.7279C272.64 2.69846 284.037 2.69846 291.066 9.7279V9.7279C298.095 16.7573 298.095 28.1543 291.066 35.1837L223.184 103.066C216.154 110.095 204.757 110.095 197.728 103.066V103.066Z"/>
</mask>
<path d="M223.184 103.066L291.066 35.1837L240.154 -15.7279L172.272 52.1543L223.184 103.066ZM265.61 9.7279L197.728 77.6102L248.64 128.522L316.522 60.6396L265.61 9.7279ZM197.728 77.6102C204.757 70.5807 216.154 70.5807 223.184 77.6102L172.272 128.522C193.36 149.61 227.551 149.61 248.64 128.522L197.728 77.6102ZM265.61 35.1837C258.581 28.1543 258.581 16.7573 265.61 9.7279L316.522 60.6396C337.61 39.5513 337.61 5.36037 316.522 -15.7279L265.61 35.1837ZM291.066 35.1837C284.037 42.2132 272.64 42.2132 265.61 35.1837L316.522 -15.7279C295.434 -36.8163 261.243 -36.8163 240.154 -15.7279L291.066 35.1837ZM172.272 52.1543C151.184 73.2426 151.184 107.434 172.272 128.522L223.184 77.6102C230.213 84.6396 230.213 96.0366 223.184 103.066L172.272 52.1543Z" fill="#009966" mask="url(#path-3-inside-1_0_1)"/>
<mask id="path-5-inside-2_0_1" fill="white">
<path d="M200 389C190.059 389 182 380.941 182 371V186C182 176.059 190.059 168 200 168V168C209.941 168 218 176.059 218 186V371C218 380.941 209.941 389 200 389V389Z"/>
</mask>
<path d="M218 371V186H146V371L218 371ZM182 186V371H254V186H182ZM182 371C182 361.059 190.059 353 200 353V425C229.823 425 254 400.823 254 371H182ZM200 204C190.059 204 182 195.941 182 186H254C254 156.177 229.823 132 200 132V204ZM218 186C218 195.941 209.941 204 200 204V132C170.177 132 146 156.177 146 186H218ZM146 371C146 400.823 170.177 425 200 425V353C209.941 353 218 361.059 218 371L146 371Z" fill="#009966" mask="url(#path-5-inside-2_0_1)"/>
<mask id="path-7-inside-3_0_1" fill="white">
<path d="M109.728 11.0711C116.757 4.04162 128.154 4.04163 135.184 11.0711L203.066 78.9533C210.095 85.9827 210.095 97.3797 203.066 104.409V104.409C196.037 111.439 184.64 111.439 177.61 104.409L109.728 36.5269C102.698 29.4975 102.698 18.1005 109.728 11.0711V11.0711Z"/>
</mask>
<path d="M109.728 36.5269L177.61 104.409L228.522 53.4975L160.64 -14.3848L109.728 36.5269ZM203.066 78.9533L135.184 11.0711L84.272 61.9827L152.154 129.865L203.066 78.9533ZM135.184 11.0711C142.213 18.1005 142.213 29.4975 135.184 36.5269L84.272 -14.3848C63.1837 6.70353 63.1837 40.8944 84.272 61.9827L135.184 11.0711ZM177.61 78.9533C184.64 71.9239 196.037 71.9239 203.066 78.9533L152.154 129.865C173.243 150.953 207.434 150.953 228.522 129.865L177.61 78.9533ZM177.61 104.409C170.581 97.3797 170.581 85.9827 177.61 78.9533L228.522 129.865C249.61 108.777 249.61 74.5858 228.522 53.4975L177.61 104.409ZM160.64 -14.3848C139.551 -35.4731 105.36 -35.4731 84.272 -14.3848L135.184 36.5269C128.154 43.5563 116.757 43.5563 109.728 36.5269L160.64 -14.3848Z" fill="#009966" mask="url(#path-7-inside-3_0_1)"/>
</g>
<defs>
<clipPath id="clip0_0_1">
<rect width="400" height="400" fill="white"/>
</clipPath>
</defs>
</svg>
