<svg width="400" height="400" viewBox="0 0 400 400" fill="none" xmlns="http://www.w3.org/2000/svg">
<path d="M382 56H18C13.0294 56 9 59.8056 9 64.5C9 69.1944 13.0294 73 18 73H382C386.971 73 391 69.1944 391 64.5C391 59.8056 386.971 56 382 56Z" stroke="#009966" stroke-width="18"/>
<path d="M378.809 146H21.1915C14.4583 146 9 149.806 9 154.5C9 159.194 14.4583 163 21.1915 163H378.809C385.542 163 391 159.194 391 154.5C391 149.806 385.542 146 378.809 146Z" stroke="#009966" stroke-width="18"/>
<path d="M382 236H18C13.0294 236 9 239.806 9 244.5C9 249.194 13.0294 253 18 253H382C386.971 253 391 249.194 391 244.5C391 239.806 386.971 236 382 236Z" stroke="#009966" stroke-width="18"/>
<path d="M231.66 326H16.3404C12.2864 326 9 329.806 9 334.5C9 339.194 12.2864 343 16.3404 343H231.66C235.714 343 239 339.194 239 334.5C239 329.806 235.714 326 231.66 326Z" stroke="#009966" stroke-width="18"/>
</svg>
