<svg width="400" height="400" viewBox="0 0 400 400" fill="none" xmlns="http://www.w3.org/2000/svg">
<path d="M96.3675 90H303.632C321.334 90 325 93.431 325 110L307.906 352C307.906 368.569 293.557 382 275.855 382H124.145C106.443 382 92.094 368.569 92.094 352L75 110C75 93.431 78.6661 90 96.3675 90Z" stroke="#009966" stroke-width="36"/>
<path d="M145.236 18H253.764C271.568 18 286 31.424 286 47.9832V73.9687C286 90.5279 271.568 88.9603 253.764 88.9603H145.236C127.432 88.9603 113 90.5279 113 73.9687V47.9832C113 31.424 127.432 18 145.236 18Z" stroke="#009966" stroke-width="36"/>
<path d="M39 90H361" stroke="#009966" stroke-width="36" stroke-linecap="round" stroke-linejoin="round"/>
<path d="M162 312V161" stroke="#009966" stroke-width="36" stroke-linecap="round" stroke-linejoin="round"/>
<path d="M240 311V160" stroke="#009966" stroke-width="36" stroke-linecap="round" stroke-linejoin="round"/>
</svg>
