<svg width="400" height="400" viewBox="0 0 400 400" fill="none" xmlns="http://www.w3.org/2000/svg">
<path d="M96.3675 90H303.632C321.334 90 325 93.431 325 110L307.906 352C307.906 368.569 293.557 382 275.855 382H124.145C106.443 382 92.094 368.569 92.094 352L75 110C75 93.431 78.6661 90 96.3675 90Z" stroke="#009966" stroke-width="36"/>
<path d="M30 90C30 85.0294 34.3082 81 39.6226 81H360.377C365.692 81 370 85.0294 370 90C370 94.9706 365.692 99 360.377 99H39.6226C34.3082 99 30 94.9706 30 90Z" fill="#009966" stroke="#009966" stroke-width="18"/>
<path d="M162.5 321C157.253 321 153 316.971 153 312V160C153 155.029 157.253 151 162.5 151C167.747 151 172 155.029 172 160V312C172 316.971 167.747 321 162.5 321Z" fill="#009966" stroke="#009966" stroke-width="18"/>
<path d="M239.5 321C234.253 321 230 316.971 230 312V160C230 155.029 234.253 151 239.5 151C244.747 151 249 155.029 249 160V312C249 316.971 244.747 321 239.5 321Z" fill="#009966" stroke="#009966" stroke-width="18"/>
<path d="M145.236 18H253.764C271.568 18 286 31.424 286 47.9832V73.9687C286 90.5279 271.568 88.9603 253.764 88.9603H145.236C127.432 88.9603 113 90.5279 113 73.9687V47.9832C113 31.424 127.432 18 145.236 18Z" stroke="#009966" stroke-width="36"/>
</svg>
