<svg width="400" height="400" viewBox="0 0 400 400" fill="none" xmlns="http://www.w3.org/2000/svg">
<path d="M145.236 18H253.764C271.568 18 286 31.424 286 47.9832V73.9687C286 90.5279 271.568 88.9603 253.764 88.9603H145.236C127.432 88.9603 113 90.5279 113 73.9687V47.9832C113 31.424 127.432 18 145.236 18Z" stroke="#009966" stroke-width="36"/>
<path d="M307.906 352L289.947 350.791L289.906 351.395V352H307.906ZM92.094 352H110.094V351.395L110.053 350.791L92.094 352ZM39 72C29.0589 72 21 80.0589 21 90C21 99.9411 29.0589 108 39 108V72ZM361 108C370.941 108 379 99.9411 379 90C379 80.0589 370.941 72 361 72V108ZM307.041 96.7913L289.947 350.791L325.865 353.209L342.959 99.2087L307.041 96.7913ZM289.906 352C289.906 357.525 284.756 364 275.855 364V400C302.358 400 325.906 379.613 325.906 352H289.906ZM275.855 364H124.145V400H275.855V364ZM124.145 364C115.244 364 110.094 357.525 110.094 352H74.094C74.094 379.613 97.6416 400 124.145 400V364ZM110.053 350.791L92.9594 96.7913L57.0406 99.2087L74.1346 353.209L110.053 350.791ZM39 108H361V72H39V108Z" fill="#009966"/>
<path d="M162 312V161" stroke="#009966" stroke-width="36" stroke-linecap="round" stroke-linejoin="round"/>
<path d="M240 311V160" stroke="#009966" stroke-width="36" stroke-linecap="round" stroke-linejoin="round"/>
</svg>
