<svg width="400" height="400" viewBox="0 0 400 400" fill="none" xmlns="http://www.w3.org/2000/svg">
<path d="M88 188H312C328.569 188 342 201.431 342 218V352C342 368.569 328.569 382 312 382H88C71.4315 382 58 368.569 58 352V218C58 201.431 71.4315 188 88 188Z" stroke="#009966" stroke-width="36"/>
<path d="M104 115C104 92.1423 112.142 70.0345 126.964 52.6532C141.785 35.2719 162.312 23.7579 184.852 20.1821C207.392 16.6064 230.466 21.2035 249.925 33.1467C269.383 45.09 283.948 63.5954 291 85.3345" stroke="#009966" stroke-width="36"/>
<path d="M282.2 86C282.2 81.0294 286.229 77 291.2 77C296.171 77 300.2 81.0294 300.2 86C300.2 90.9706 296.171 95 291.2 95C286.229 95 282.2 90.9706 282.2 86Z" stroke="#009966" stroke-width="18"/>
<path d="M104 182C99.0294 182 95 177.971 95 173V111C95 106.029 99.0294 102 104 102V102C108.971 102 113 106.029 113 111V173C113 177.971 108.971 182 104 182V182Z" stroke="#009966" stroke-width="18"/>
</svg>
