<svg width="400" height="400" viewBox="0 0 400 400" fill="none" xmlns="http://www.w3.org/2000/svg">
<path d="M88 188H312C328.569 188 342 201.431 342 218V352C342 368.569 328.569 382 312 382H88C71.4315 382 58 368.569 58 352V218C58 201.431 71.4315 188 88 188Z" stroke="#009966" stroke-width="36"/>
<path d="M110.706 114.147C110.706 91.2542 118.874 69.1125 133.742 51.7046C148.61 34.2966 169.201 22.765 191.812 19.1837C214.423 15.6025 237.57 20.2067 257.09 32.1682C276.609 44.1298 291.22 62.6636 298.294 84.436" stroke="#009966" stroke-width="36"/>
<mask id="path-3-inside-1_51_5" fill="white">
<path d="M111 186.099C120.941 186.099 129 178.04 129 168.099V108.843C129 98.9019 120.941 90.843 111 90.843V90.843C101.059 90.843 93 98.9019 93 108.843V168.099C93 178.04 101.059 186.099 111 186.099V186.099Z"/>
</mask>
<path d="M93 168.099V108.843H165V168.099H93ZM129 108.843V168.099H57V108.843H129ZM129 168.099C129 158.158 120.941 150.099 111 150.099V222.099C81.1766 222.099 57 197.923 57 168.099H129ZM111 126.843C120.941 126.843 129 118.784 129 108.843H57C57 79.0196 81.1766 54.843 111 54.843V126.843ZM93 108.843C93 118.784 101.059 126.843 111 126.843V54.843C140.823 54.843 165 79.0197 165 108.843H93ZM165 168.099C165 197.923 140.823 222.099 111 222.099V150.099C101.059 150.099 93 158.158 93 168.099H165Z" fill="#009966" mask="url(#path-3-inside-1_51_5)"/>
<path d="M307 83C307 78.0294 302.971 74 298 74V74C293.029 74 289 78.0294 289 83V83C289 87.9706 293.029 92 298 92V92C302.971 92 307 87.9706 307 83V83Z" stroke="#009966" stroke-width="18"/>
</svg>
