<svg xmlns="http://www.w3.org/2000/svg"  viewBox="0 0 400 400" stroke='#009966' stroke-width="36px" stroke-linecap="round" stroke-linejoin="round" fill="none">
  <rect transform="matrix(0, 1, -1, 0, 457.283997, -57.283005)" x="128.641" y="128.642" width="257.284" height="257.284" rx="36" ry="36"></rect>
  <path d="M 360.177 207.505 L 360.177 250.482" transform="matrix(0, 1, -1, 0, 589.170532, -131.183502)"></path>
  <path d="M 360.16 269.054 L 360.16 312.03" transform="matrix(0, 1, -1, 0, 650.702026, -69.618011)"></path>
  <path d="M 360.16 87.97 L 360.16 130.946" transform="matrix(0, 1, -1, 0, 469.618011, -250.701996)"></path>
  <path d="M 39.561 206.805 L 39.561 249.619" transform="matrix(0, 1, -1, 0, 267.77301, 188.651001)"></path>
  <path d="M 39.544 266.695 L 39.544 309.508" transform="matrix(0, 1, -1, 0, 327.645508, 248.55751)"></path>
  <path d="M 39.544 90.493 L 39.544 133.305" transform="matrix(0, 1, -1, 0, 151.442993, 72.354996)"></path>
  <path d="M 169.512 18.4 L 169.512 61.308"></path>
  <path d="M 291.463 18.417 L 291.463 61.325"></path>
  <path d="M 108.537 18.417 L 108.537 61.325"></path>
  <path d="M 170.052 338.685 L 170.052 381.483"></path>
  <path d="M 289.845 338.702 L 289.845 381.5"></path>
  <path d="M 110.155 338.702 L 110.155 381.5"></path>
  <rect x="135.679" y="135.679" width="128.642" height="128.642" rx="8" ry="8" style=""></rect>
  <path d="M 229.949 338.5 L 229.949 381.298"></path>
  <path d="M 360.183 147.689 L 360.183 190.666" transform="matrix(0, 1, -1, 0, 529.360535, -191.005508)"></path>
  <path d="M 230.338 18.492 L 230.338 61.4"></path>
  <path d="M 39.374 148.334 L 39.374 191.146" transform="matrix(0, 1, -1, 0, 209.113998, 130.365997)"></path>
</svg>