<svg width="400" height="400" viewBox="0 0 400 400" fill="none" xmlns="http://www.w3.org/2000/svg">
<path d="M61 145C61 140.029 65.0294 136 70 136C74.9706 136 79 140.029 79 145C79 149.971 74.9706 154 70 154C65.0294 154 61 149.971 61 145Z" stroke="#009966" stroke-width="18"/>
<path d="M113 145C113 140.029 117.029 136 122 136C126.971 136 131 140.029 131 145C131 149.971 126.971 154 122 154C117.029 154 113 149.971 113 145Z" stroke="#009966" stroke-width="18"/>
<path d="M165 145C165 140.029 169.029 136 174 136C178.971 136 183 140.029 183 145C183 149.971 178.971 154 174 154C169.029 154 165 149.971 165 145Z" stroke="#009966" stroke-width="18"/>
<path d="M216 145C216 140.029 220.029 136 225 136C229.971 136 234 140.029 234 145C234 149.971 229.971 154 225 154C220.029 154 216 149.971 216 145Z" stroke="#009966" stroke-width="18"/>
<path d="M268 145C268 140.029 272.029 136 277 136C281.971 136 286 140.029 286 145C286 149.971 281.971 154 277 154C272.029 154 268 149.971 268 145Z" stroke="#009966" stroke-width="18"/>
<path d="M61 201C61 196.029 65.0294 192 70 192C74.9706 192 79 196.029 79 201C79 205.971 74.9706 210 70 210C65.0294 210 61 205.971 61 201Z" stroke="#009966" stroke-width="18"/>
<path d="M61 253C61 248.029 65.0294 244 70 244C74.9706 244 79 248.029 79 253C79 257.971 74.9706 262 70 262C65.0294 262 61 257.971 61 253Z" stroke="#009966" stroke-width="18"/>
<path d="M113 201C113 196.029 117.029 192 122 192C126.971 192 131 196.029 131 201C131 205.971 126.971 210 122 210C117.029 210 113 205.971 113 201Z" stroke="#009966" stroke-width="18"/>
<path d="M165 201C165 196.029 169.029 192 174 192C178.971 192 183 196.029 183 201C183 205.971 178.971 210 174 210C169.029 210 165 205.971 165 201Z" stroke="#009966" stroke-width="18"/>
<path d="M216 201C216 196.029 220.029 192 225 192C229.971 192 234 196.029 234 201C234 205.971 229.971 210 225 210C220.029 210 216 205.971 216 201Z" stroke="#009966" stroke-width="18"/>
<path d="M268 201C268 196.029 272.029 192 277 192C281.971 192 286 196.029 286 201C286 205.971 281.971 210 277 210C272.029 210 268 205.971 268 201Z" stroke="#009966" stroke-width="18"/>
<path d="M320 145C320 140.029 324.029 136 329 136C333.971 136 338 140.029 338 145C338 149.971 333.971 154 329 154C324.029 154 320 149.971 320 145Z" stroke="#009966" stroke-width="18"/>
<path d="M320 201C320 196.029 324.029 192 329 192C333.971 192 338 196.029 338 201C338 205.971 333.971 210 329 210C324.029 210 320 205.971 320 201Z" stroke="#009966" stroke-width="18"/>
<path d="M320 253C320 248.029 324.029 244 329 244C333.971 244 338 248.029 338 253C338 257.971 333.971 262 329 262C324.029 262 320 257.971 320 253Z" stroke="#009966" stroke-width="18"/>
<path d="M113 253C113 248.029 117.029 244 122 244H277C281.971 244 286 248.029 286 253V253C286 257.971 281.971 262 277 262H122C117.029 262 113 257.971 113 253V253Z" stroke="#009966" stroke-width="18"/>
<path d="M48 94H352C368.569 94 382 107.431 382 124V278C382 294.569 368.569 308 352 308H48C31.4315 308 18 294.569 18 278V124C18 107.431 31.4315 94 48 94Z" stroke="#009966" stroke-width="36"/>
</svg>
