<svg xmlns="http://www.w3.org/2000/svg"  viewBox="0 0 400 400" stroke='#009966' stroke-width="36px" stroke-linecap="round" stroke-linejoin="round" fill="none">
  <ellipse style="fill: rgb(216, 216, 216); fill-opacity: 0;" cx="200" cy="200" rx="182" ry="182"></ellipse>
  <path d="M 229.209 126.513 C 229.209 131.461 227.979 136.121 225.807 140.205 L 174.192 140.205 C 172.02 136.121 170.79 131.461 170.79 126.513 C 170.79 110.381 183.868 97.304 199.999 97.304 C 216.131 97.304 229.209 110.381 229.209 126.513 Z" style="stroke-width: 24px;"></path>
  <path d="M 241.658 246.339 C 241.658 256.288 239.904 265.658 236.807 273.869 L 163.192 273.869 C 160.095 265.658 158.342 256.288 158.342 246.339 C 158.342 213.905 176.993 187.609 200 187.609 C 223.008 187.609 241.658 213.905 241.658 246.339 Z" style="stroke-width: 24px;" transform="matrix(-1, 0, 0, -1, 400, 461.477997)"></path>
  <path d="M 122.924 183.777 L 159.437 183.777" data-bx-origin="0.999162 0" style="stroke-width: 24px;" transform="matrix(0.707107, 0.707107, -0.707107, 0.707107, 176.639008, -58.890308)"></path>
  <path d="M 203.642 183.689 L 240.153 183.689" data-bx-origin="0.999162 0" style="stroke-width: 24px;" transform="matrix(-0.707107, 0.707107, -0.707107, -0.707107, 539.802307, 143.784546)"></path>
  <path d="M 203.878 260.813 L 240.39 260.813" data-bx-origin="0.999162 0" style="stroke-width: 24px;" transform="matrix(-0.707107, -0.707107, 0.707107, -0.707107, 225.89653, 615.195374)"></path>
  <path d="M 123.161 260.901 L 159.672 260.901" data-bx-origin="0.999162 0" style="stroke-width: 24px;" transform="matrix(0.707107, -0.707107, 0.707107, 0.707107, -137.72699, 189.299652)"></path>
  <path d="M 222.17 219.415 L 253.07 219.415" data-bx-origin="0.98 0" style="stroke-width: 24px;" transform="matrix(-1, 0, 0, -1, 504.904022, 438.829987)"></path>
  <path d="M 117.265 219.502 L 148.453 219.502" data-bx-origin="0.999162 0" style="stroke-width: 24px;"></path>
</svg>