<svg width="400" height="400" viewBox="0 0 400 400" fill="none" xmlns="http://www.w3.org/2000/svg">
<path d="M382 56H18C13.0294 56 9 60.0294 9 65C9 69.9706 13.0294 74 18 74H382C386.971 74 391 69.9706 391 65C391 60.0294 386.971 56 382 56Z" stroke="#009966" stroke-width="18"/>
<path d="M282 146H18C13.0294 146 9 150.029 9 155C9 159.971 13.0294 164 18 164H282C286.971 164 291 159.971 291 155C291 150.029 286.971 146 282 146Z" stroke="#009966" stroke-width="18"/>
<path d="M382 236H18C13.0294 236 9 240.029 9 245C9 249.971 13.0294 254 18 254H382C386.971 254 391 249.971 391 245C391 240.029 386.971 236 382 236Z" stroke="#009966" stroke-width="18"/>
<path d="M282 326H18C13.0294 326 9 330.029 9 335C9 339.971 13.0294 344 18 344H282C286.971 344 291 339.971 291 335C291 330.029 286.971 326 282 326Z" stroke="#009966" stroke-width="18"/>
</svg>
