<svg xmlns="http://www.w3.org/2000/svg" viewBox="0 0 400 400" stroke='#009966' stroke-width="36px" stroke-linecap="round" stroke-linejoin="round" fill="none">
    <path d="M 42.079 200.194 L 132.08 199.802" data-bx-origin="1.001 1.532" transform="matrix(0.707107, -0.707107, 0.707107, 0.707107, -102.994304, 152.154866)"></path>
    <path d="M 42.326 199.995 L 132.326 199.603" data-bx-origin="0.996906 -1.033458" transform="matrix(0.707107, 0.707107, -0.707107, 0.707107, 179.530004, -35.028005)"></path>
    <path d="M 142.079 200.194 L 232.08 199.802" data-bx-origin="1.001 1.532" transform="matrix(0.707107, -0.707107, 0.707107, 0.707107, -73.704981, 222.865531)"></path>
    <path d="M 142.326 199.995 L 232.326 199.603" data-bx-origin="0.996906 -1.033458" transform="matrix(0.707107, 0.707107, -0.707107, 0.707107, 208.819327, -105.738689)"></path>
    <path d="M 242.079 200.194 L 332.08 199.802" data-bx-origin="1.001 1.532" transform="matrix(0.707107, -0.707107, 0.707107, 0.707107, -44.415662, 293.576211)"></path>
    <path d="M 242.326 199.995 L 332.326 199.603" data-bx-origin="0.996906 -1.033458" transform="matrix(0.707107, 0.707107, -0.707107, 0.707107, 238.10865, -176.449361)"></path>
</svg>