<svg xmlns="http://www.w3.org/2000/svg" viewBox="0 0 400 400" stroke='#009966' stroke-width="36px" stroke-linecap="round" stroke-linejoin="round" fill="none">
    <path style="fill: rgb(216, 216, 216); stroke-width: 36px; stroke-linecap: round; stroke-linejoin: round; stroke: rgb(0, 153, 102);" d="M 84.304 105.142 C 84.304 105.142 84.304 333.52 84.304 334.543"></path>
    <path style="fill: rgb(216, 216, 216); stroke-linecap: round; stroke-linejoin: round; stroke: rgb(0, 153, 102); stroke-width: 36px;" d="M 163.232 98.123 C 163.232 98.123 163.232 213.841 163.232 214.359" transform="matrix(0, 1, -1, 0, 319.472992, -6.990997)"></path>
    <path style="fill: rgb(216, 216, 216); stroke-linecap: round; stroke-linejoin: round; stroke: rgb(0, 153, 102); stroke-width: 36px;" d="M 153.599 270.082 C 153.599 270.082 153.599 399.204 153.599 399.782" transform="matrix(0, 1, -1, 0, 488.531006, 181.333008)"></path>
    <rect y="48.542" width="72" height="36" style="fill: rgb(216, 216, 216); stroke-linejoin: round; stroke-linecap: round; stroke-width: 36px; stroke: rgb(0, 153, 102);" x="48.453"></rect>
    <rect x="164.096" y="138.733" width="72" height="36" style="fill: rgb(216, 216, 216); stroke-linejoin: round; stroke-linecap: round; stroke-width: 36px; stroke: rgb(0, 153, 102);"></rect>
    <rect x="164.087" y="315.458" width="72" height="36" style="fill: rgb(216, 216, 216); stroke-linejoin: round; stroke-linecap: round; stroke-width: 36px; stroke: rgb(0, 153, 102);"></rect>
    <path style="fill: rgb(216, 216, 216); stroke-linecap: round; stroke-linejoin: round; stroke: rgb(0, 153, 102); stroke-width: 36px;" d="M 199.573 183.818 C 199.573 183.818 199.573 245.542 199.573 245.818"></path>
    <path style="fill: rgb(216, 216, 216); stroke-linecap: round; stroke-linejoin: round; stroke: rgb(0, 153, 102); stroke-width: 36px;" d="M 265.505 180.523 C 265.505 180.523 265.505 310.61 265.505 311.191" transform="matrix(0, 1, -1, 0, 511.362, -19.648003)"></path>
    <rect x="279.547" y="228.349" width="72" height="36" style="fill: rgb(216, 216, 216); stroke-linejoin: round; stroke-linecap: round; stroke-width: 36px; stroke: rgb(0, 153, 102);"></rect>
  </svg>