<svg width="400" height="400" viewBox="0 0 400 400" fill="none" xmlns="http://www.w3.org/2000/svg">
<path d="M48 18H352C368.569 18 382 31.4315 382 48V352C382 368.569 368.569 382 352 382H48C31.4315 382 18 368.569 18 352V48C18 31.4315 31.4315 18 48 18Z" stroke="#009966" stroke-width="36"/>
<mask id="path-2-inside-1_69_2" fill="white">
<path d="M85 110C85 100.059 93.0589 92 103 92H187C196.941 92 205 100.059 205 110V110C205 119.941 196.941 128 187 128H103C93.0589 128 85 119.941 85 110V110Z"/>
</mask>
<path d="M103 128H187V56H103V128ZM187 92H103V164H187V92ZM103 92C112.941 92 121 100.059 121 110H49C49 139.823 73.1766 164 103 164V92ZM169 110C169 100.059 177.059 92 187 92V164C216.823 164 241 139.823 241 110H169ZM187 128C177.059 128 169 119.941 169 110H241C241 80.1766 216.823 56 187 56V128ZM103 56C73.1766 56 49 80.1766 49 110H121C121 119.941 112.941 128 103 128V56Z" fill="#009966" mask="url(#path-2-inside-1_69_2)"/>
<mask id="path-4-inside-2_69_2" fill="white">
<path d="M85 200C85 190.059 93.0589 182 103 182H297C306.941 182 315 190.059 315 200V200C315 209.941 306.941 218 297 218H103C93.0589 218 85 209.941 85 200V200Z"/>
</mask>
<path d="M103 218H297V146H103V218ZM297 182H103V254H297V182ZM103 182C112.941 182 121 190.059 121 200H49C49 229.823 73.1766 254 103 254V182ZM279 200C279 190.059 287.059 182 297 182V254C326.823 254 351 229.823 351 200H279ZM297 218C287.059 218 279 209.941 279 200H351C351 170.177 326.823 146 297 146V218ZM103 146C73.1766 146 49 170.177 49 200H121C121 209.941 112.941 218 103 218V146Z" fill="#009966" mask="url(#path-4-inside-2_69_2)"/>
<mask id="path-6-inside-3_69_2" fill="white">
<path d="M85 290C85 280.059 93.0589 272 103 272H187C196.941 272 205 280.059 205 290V290C205 299.941 196.941 308 187 308H103C93.0589 308 85 299.941 85 290V290Z"/>
</mask>
<path d="M103 308H187V236H103V308ZM187 272H103V344H187V272ZM103 272C112.941 272 121 280.059 121 290H49C49 319.823 73.1766 344 103 344V272ZM169 290C169 280.059 177.059 272 187 272V344C216.823 344 241 319.823 241 290H169ZM187 308C177.059 308 169 299.941 169 290H241C241 260.177 216.823 236 187 236V308ZM103 236C73.1766 236 49 260.177 49 290H121C121 299.941 112.941 308 103 308V236Z" fill="#009966" mask="url(#path-6-inside-3_69_2)"/>
</svg>
