<svg width="400" height="400" viewBox="0 0 400 400" fill="none" xmlns="http://www.w3.org/2000/svg">
<path d="M48 18H352C368.569 18 382 31.4315 382 48V352C382 368.569 368.569 382 352 382H48C31.4315 382 18 368.569 18 352V48C18 31.4315 31.4315 18 48 18Z" stroke="#009966" stroke-width="36"/>
<path d="M94 110C94 105.029 98.0294 101 103 101H297C301.971 101 306 105.029 306 110V110C306 114.971 301.971 119 297 119H103C98.0294 119 94 114.971 94 110V110Z" stroke="#009966" stroke-width="18"/>
<path d="M94 200C94 195.029 98.0294 191 103 191H195C199.971 191 204 195.029 204 200V200C204 204.971 199.971 209 195 209H103C98.0294 209 94 204.971 94 200V200Z" stroke="#009966" stroke-width="18"/>
<path d="M94 290C94 285.029 98.0294 281 103 281H195C199.971 281 204 285.029 204 290V290C204 294.971 199.971 299 195 299H103C98.0294 299 94 294.971 94 290V290Z" stroke="#009966" stroke-width="18"/>
</svg>
