<svg width="400" height="400" viewBox="0 0 400 400" fill="none" xmlns="http://www.w3.org/2000/svg">
<path d="M48 18H352C368.569 18 382 31.4315 382 48V352C382 368.569 368.569 382 352 382H48C31.4315 382 18 368.569 18 352V48C18 31.4315 31.4315 18 48 18Z" stroke="#009966" stroke-width="36"/>
<path d="M113 218H287V146H113V218ZM287 182H113V254H287V182ZM113 182C122.941 182 131 190.059 131 200H59C59 229.823 83.1766 254 113 254V182ZM269 200C269 190.059 277.059 182 287 182V254C316.823 254 341 229.823 341 200H269ZM287 218C277.059 218 269 209.941 269 200H341C341 170.177 316.823 146 287 146V218ZM113 146C83.1766 146 59 170.177 59 200H131C131 209.941 122.941 218 113 218V146Z" fill="#009966" mask="url(#path-2-inside-1_58_2)"/>
<mask id="path-4-inside-2_58_2" fill="white">
<path d="M200 305C190.059 305 182 296.941 182 287V113C182 103.059 190.059 95 200 95V95C209.941 95 218 103.059 218 113V287C218 296.941 209.941 305 200 305V305Z"/>
</mask>
<path d="M218 287V113H146V287H218ZM182 113V287H254V113H182ZM182 287C182 277.059 190.059 269 200 269V341C229.823 341 254 316.823 254 287H182ZM200 131C190.059 131 182 122.941 182 113H254C254 83.1766 229.823 59 200 59V131ZM218 113C218 122.941 209.941 131 200 131V59C170.177 59 146 83.1766 146 113H218ZM146 287C146 316.823 170.177 341 200 341V269C209.941 269 218 277.059 218 287H146Z" fill="#009966" mask="url(#path-4-inside-2_58_2)"/>
</svg>
