<svg width="400" height="400" viewBox="0 0 400 400" fill="none" xmlns="http://www.w3.org/2000/svg">
<path d="M48 18H352C368.569 18 382 31.4315 382 48V352C382 368.569 368.569 382 352 382H48C31.4315 382 18 368.569 18 352V48C18 31.4315 31.4315 18 48 18Z" stroke="#009966" stroke-width="36"/>
<mask id="path-2-inside-1_69_2" fill="white">
<path d="M85 110C85 100.059 93.0589 92 103 92H297C306.941 92 315 100.059 315 110V110C315 119.941 306.941 128 297 128H103C93.0589 128 85 119.941 85 110V110Z"/>
</mask>
<path d="M103 128H297V56H103V128ZM297 92H103V164H297V92ZM103 92C112.941 92 121 100.059 121 110H49C49 139.823 73.1766 164 103 164V92ZM279 110C279 100.059 287.059 92 297 92V164C326.823 164 351 139.823 351 110H279ZM297 128C287.059 128 279 119.941 279 110H351C351 80.1766 326.823 56 297 56V128ZM103 56C73.1766 56 49 80.1766 49 110H121C121 119.941 112.941 128 103 128V56Z" fill="#009966" mask="url(#path-2-inside-1_69_2)"/>
<mask id="path-4-inside-2_69_2" fill="white">
<path d="M85 200C85 190.059 93.0589 182 103 182H297C306.941 182 315 190.059 315 200V200C315 209.941 306.941 218 297 218H103C93.0589 218 85 209.941 85 200V200Z"/>
</mask>
<path d="M103 218H297V146H103V218ZM297 182H103V254H297V182ZM103 182C112.941 182 121 190.059 121 200H49C49 229.823 73.1766 254 103 254V182ZM279 200C279 190.059 287.059 182 297 182V254C326.823 254 351 229.823 351 200H279ZM297 218C287.059 218 279 209.941 279 200H351C351 170.177 326.823 146 297 146V218ZM103 146C73.1766 146 49 170.177 49 200H121C121 209.941 112.941 218 103 218V146Z" fill="#009966" mask="url(#path-4-inside-2_69_2)"/>
<mask id="path-6-inside-3_69_2" fill="white">
<path d="M85 290C85 280.059 93.0589 272 103 272H212C221.941 272 230 280.059 230 290V290C230 299.941 221.941 308 212 308H103C93.0589 308 85 299.941 85 290V290Z"/>
</mask>
<path d="M103 308H212V236H103V308ZM212 272H103V344H212V272ZM103 272C112.941 272 121 280.059 121 290H49C49 319.823 73.1766 344 103 344V272ZM194 290C194 280.059 202.059 272 212 272V344C241.823 344 266 319.823 266 290H194ZM212 308C202.059 308 194 299.941 194 290H266C266 260.177 241.823 236 212 236V308ZM103 236C73.1766 236 49 260.177 49 290H121C121 299.941 112.941 308 103 308V236Z" fill="#009966" mask="url(#path-6-inside-3_69_2)"/>
</svg>
