<svg width="400" height="400" viewBox="0 0 400 400" fill="none" xmlns="http://www.w3.org/2000/svg">
<path d="M56 218C65.9411 218 74 209.941 74 200C74 190.059 65.9411 182 56 182C46.0589 182 38 190.059 38 200C38 209.941 46.0589 218 56 218Z" fill="#009966" stroke="#009966" stroke-width="36"/>
<path d="M344 218C353.941 218 362 209.941 362 200C362 190.059 353.941 182 344 182C334.059 182 326 190.059 326 200C326 209.941 334.059 218 344 218Z" fill="#009966" stroke="#009966" stroke-width="36"/>
<path d="M200 218C209.941 218 218 209.941 218 200C218 190.059 209.941 182 200 182C190.059 182 182 190.059 182 200C182 209.941 190.059 218 200 218Z" fill="#009966" stroke="#009966" stroke-width="36"/>
<path d="M56 76C65.9411 76 74 67.9411 74 58C74 48.0589 65.9411 40 56 40C46.0589 40 38 48.0589 38 58C38 67.9411 46.0589 76 56 76Z" fill="#009966" stroke="#009966" stroke-width="36"/>
<path d="M344 76C353.941 76 362 67.9411 362 58C362 48.0589 353.941 40 344 40C334.059 40 326 48.0589 326 58C326 67.9411 334.059 76 344 76Z" fill="#009966" stroke="#009966" stroke-width="36"/>
<path d="M200 76C209.941 76 218 67.9411 218 58C218 48.0589 209.941 40 200 40C190.059 40 182 48.0589 182 58C182 67.9411 190.059 76 200 76Z" fill="#009966" stroke="#009966" stroke-width="36"/>
<path d="M56 360C65.9411 360 74 351.941 74 342C74 332.059 65.9411 324 56 324C46.0589 324 38 332.059 38 342C38 351.941 46.0589 360 56 360Z" fill="#009966" stroke="#009966" stroke-width="36"/>
<path d="M344 360C353.941 360 362 351.941 362 342C362 332.059 353.941 324 344 324C334.059 324 326 332.059 326 342C326 351.941 334.059 360 344 360Z" fill="#009966" stroke="#009966" stroke-width="36"/>
<path d="M200 360C209.941 360 218 351.941 218 342C218 332.059 209.941 324 200 324C190.059 324 182 332.059 182 342C182 351.941 190.059 360 200 360Z" fill="#009966" stroke="#009966" stroke-width="36"/>
</svg>
