<svg width="400" height="400" viewBox="0 0 400 400" fill="none" xmlns="http://www.w3.org/2000/svg">
<path d="M46 218C55.9411 218 64 209.941 64 200C64 190.059 55.9411 182 46 182C36.0589 182 28 190.059 28 200C28 209.941 36.0589 218 46 218Z" fill="#009966" stroke="#009966" stroke-width="36"/>
<path d="M354 218C363.941 218 372 209.941 372 200C372 190.059 363.941 182 354 182C344.059 182 336 190.059 336 200C336 209.941 344.059 218 354 218Z" fill="#009966" stroke="#009966" stroke-width="36"/>
<path d="M200 218C209.941 218 218 209.941 218 200C218 190.059 209.941 182 200 182C190.059 182 182 190.059 182 200C182 209.941 190.059 218 200 218Z" fill="#009966" stroke="#009966" stroke-width="36"/>
</svg>
