<svg width="400" height="400" viewBox="0 0 400 400" fill="none" xmlns="http://www.w3.org/2000/svg">
<g clip-path="url(#clip0_0_1)">
<path d="M127.705 236.246H53.705C33.8227 236.246 17.705 252.364 17.705 272.246V346.246C17.705 366.128 33.8227 382.246 53.705 382.246H127.705C147.587 382.246 163.705 366.128 163.705 346.246V272.246C163.705 252.364 147.587 236.246 127.705 236.246Z" stroke="#009966" stroke-width="36" stroke-linecap="round" stroke-linejoin="round"/>
<path d="M257.06 257.202L256.702 257.56C256.605 257.657 267.925 269.132 281.983 283.191L334.309 335.516C348.368 349.575 359.843 360.895 359.94 360.798L360.298 360.44C360.394 360.343 349.075 348.868 335.016 334.809L282.691 282.483C268.632 268.425 257.157 257.105 257.06 257.202Z" stroke="#009966" stroke-width="36" stroke-linecap="round" stroke-linejoin="round"/>
<path d="M257.202 359.94L257.56 360.298C257.657 360.395 269.132 349.075 283.191 335.017L335.516 282.691C349.575 268.632 360.894 257.157 360.798 257.06L360.44 256.702C360.343 256.605 348.868 267.925 334.809 281.984L282.483 334.309C268.425 348.368 257.105 359.843 257.202 359.94Z" stroke="#009966" stroke-width="36" stroke-linecap="round" stroke-linejoin="round"/>
<path d="M346 18H272C252.118 18 236 34.1177 236 54V128C236 147.882 252.118 164 272 164H346C365.882 164 382 147.882 382 128V54C382 34.1177 365.882 18 346 18Z" stroke="#009966" stroke-width="36" stroke-linecap="round" stroke-linejoin="round"/>
<path d="M128 18H54C34.1177 18 18 34.1177 18 54V128C18 147.882 34.1177 164 54 164H128C147.882 164 164 147.882 164 128V54C164 34.1177 147.882 18 128 18Z" stroke="#009966" stroke-width="36" stroke-linecap="round" stroke-linejoin="round"/>
</g>
<defs>
<clipPath id="clip0_0_1">
<rect width="400" height="400" fill="white"/>
</clipPath>
</defs>
</svg>
