<svg width="400" height="400" viewBox="0 0 400 400" fill="none" xmlns="http://www.w3.org/2000/svg">
<path d="M382 346V272C382 252.118 365.882 236 346 236H272C252.118 236 236 252.118 236 272V346C236 365.882 252.118 382 272 382H346C365.882 382 382 365.882 382 346Z" stroke="#009966" stroke-width="36" stroke-linecap="round" stroke-linejoin="round"/>
<path d="M382 128V54C382 34.118 365.882 18 346 18H272C252.118 18 236 34.118 236 54V128C236 147.882 252.118 164 272 164H346C365.882 164 382 147.882 382 128Z" stroke="#009966" stroke-width="36" stroke-linecap="round" stroke-linejoin="round"/>
<path d="M164 346L164 54C164 34.118 147.882 18 128 18H54C34.118 18 18 34.118 18 54L18 346C18 365.882 34.118 382 54 382H128C147.882 382 164 365.882 164 346Z" stroke="#009966" stroke-width="36"/>
</svg>
