<svg width="400" height="400" viewBox="0 0 400 400" fill="none" xmlns="http://www.w3.org/2000/svg">
<path d="M18 364V327C18 317.059 26.0589 309 36 309H364C373.941 309 382 317.059 382 327V364C382 373.941 373.941 382 364 382H36C26.0589 382 18 373.941 18 364Z" stroke="#009966" stroke-width="36"/>
<path d="M18 74V36C18 26.0589 26.0589 18 36 18L364 18C373.941 18 382 26.0589 382 36V74C382 83.9411 373.941 92 364 92L36 92C26.0589 92 18 83.9411 18 74Z" stroke="#009966" stroke-width="36"/>
<path d="M18 219V182C18 172.059 26.0589 164 36 164L364 164C373.941 164 382 172.059 382 182V219C382 228.941 373.941 237 364 237L36 237C26.0589 237 18 228.941 18 219Z" stroke="#009966" stroke-width="36"/>
</svg>
