<svg width="400" height="400" viewBox="0 0 400 400" fill="none" xmlns="http://www.w3.org/2000/svg">
<g clip-path="url(#clip0_0_1)">
<path d="M127.705 236.246H53.705C33.8227 236.246 17.705 252.364 17.705 272.246V346.246C17.705 366.128 33.8227 382.246 53.705 382.246H127.705C147.587 382.246 163.705 366.128 163.705 346.246V272.246C163.705 252.364 147.587 236.246 127.705 236.246Z" stroke="#009966" stroke-width="36" stroke-linecap="round" stroke-linejoin="round"/>
<path d="M308.753 252H308.247C308.11 252 308 258.403 308 266.301V295.699C308 303.597 308.11 310 308.247 310H308.753C308.89 310 309 303.597 309 295.699V266.301C309 258.403 308.89 252 308.753 252Z" stroke="#009966" stroke-width="36" stroke-linecap="round" stroke-linejoin="round"/>
<path d="M346 18H272C252.118 18 236 34.1177 236 54V128C236 147.882 252.118 164 272 164H346C365.882 164 382 147.882 382 128V54C382 34.1177 365.882 18 346 18Z" stroke="#009966" stroke-width="36" stroke-linecap="round" stroke-linejoin="round"/>
<path d="M128 18H54C34.1177 18 18 34.1177 18 54V128C18 147.882 34.1177 164 54 164H128C147.882 164 164 147.882 164 128V54C164 34.1177 147.882 18 128 18Z" stroke="#009966" stroke-width="36" stroke-linecap="round" stroke-linejoin="round"/>
<path d="M299 382C299 377.029 303.029 373 308 373V373C312.971 373 317 377.029 317 382V382C317 386.971 312.971 391 308 391V391C303.029 391 299 386.971 299 382V382Z" stroke="#009966" stroke-width="18"/>
</g>
<defs>
<clipPath id="clip0_0_1">
<rect width="400" height="400" fill="white"/>
</clipPath>
</defs>
</svg>
