<svg width="400" height="400" viewBox="0 0 400 400" fill="none" xmlns="http://www.w3.org/2000/svg">
<path d="M36 18H73C82.9411 18 91 26.0589 91 36V364C91 373.941 82.9411 382 73 382H36C26.0589 382 18 373.941 18 364V36C18 26.0589 26.0589 18 36 18Z" stroke="#009966" stroke-width="36"/>
<path d="M181 18H219C228.941 18 237 26.0589 237 36V364C237 373.941 228.941 382 219 382H181C171.059 382 163 373.941 163 364V36C163 26.0589 171.059 18 181 18Z" stroke="#009966" stroke-width="36"/>
<path d="M327 18H364C373.941 18 382 26.0589 382 36V364C382 373.941 373.941 382 364 382H327C317.059 382 309 373.941 309 364V36C309 26.0589 317.059 18 327 18Z" stroke="#009966" stroke-width="36"/>
</svg>
