<svg width="400" height="400" viewBox="0 0 400 400" fill="none" xmlns="http://www.w3.org/2000/svg">
<g clip-path="url(#clip0_55_27)">
<path d="M18 54L18 128C18 147.882 34.1177 164 54 164H128C147.882 164 164 147.882 164 128V54C164 34.118 147.882 18 128 18H54C34.1177 18 18 34.118 18 54Z" stroke="#009966" stroke-width="36" stroke-linecap="round" stroke-linejoin="round"/>
<path d="M18 272L18 346C18 365.882 34.1177 382 54 382H128C147.882 382 164 365.882 164 346V272C164 252.118 147.882 236 128 236H54C34.1177 236 18 252.118 18 272Z" stroke="#009966" stroke-width="36" stroke-linecap="round" stroke-linejoin="round"/>
<path d="M236 54L236 346C236 365.882 252.118 382 272 382H346C365.882 382 382 365.882 382 346V54C382 34.1177 365.882 18 346 18H272C252.118 18 236 34.1177 236 54Z" stroke="#009966" stroke-width="36"/>
</g>
<defs>
<clipPath id="clip0_55_27">
<rect width="400" height="400" fill="white" transform="translate(0 400) rotate(-90)"/>
</clipPath>
</defs>
</svg>
