<svg xmlns="http://www.w3.org/2000/svg"  viewBox="0 0 400 400" stroke='#009966' stroke-width="36px" stroke-linecap="round" stroke-linejoin="round" fill="none">
  <path d="M 336.5 346 C 336.5 365.882 320.382 382 300.5 382 L 99.5 382 C 79.618 382 63.5 365.882 63.5 346 L 63.5 54 C 63.5 34.118 79.618 18 99.5 18 L 186 18 C 206 18 222.2 34 222.2 54 L 222.2 98 C 222.2 118 238.2 132.8 258.2 132.8 L 300.5 132.8 C 325.5 132.8 336.5 148.8 336.5 168.8 L 336.5 346 Z" style="fill: rgb(216, 216, 216); fill-opacity: 0;"></path>
  <path style="fill: rgb(216, 216, 216);" d="M 335.447 121.943 L 336.371 164.401 M 230.936 18.037 L 335.38 121.966 M 186.785 17.732 L 230.899 18"></path>
</svg>