<svg width="400" height="400" viewBox="0 0 400 400" fill="none" xmlns="http://www.w3.org/2000/svg">
<path d="M382 56H18C13.0294 56 9 60.0294 9 65C9 69.9706 13.0294 74 18 74H382C386.971 74 391 69.9706 391 65C391 60.0294 386.971 56 382 56Z" stroke="#009966" stroke-width="18"/>
<path d="M382 146H118C113.029 146 109 150.029 109 155C109 159.971 113.029 164 118 164H382C386.971 164 391 159.971 391 155C391 150.029 386.971 146 382 146Z" stroke="#009966" stroke-width="18"/>
<path d="M382 236H18C13.0294 236 9 240.029 9 245C9 249.971 13.0294 254 18 254H382C386.971 254 391 249.971 391 245C391 240.029 386.971 236 382 236Z" stroke="#009966" stroke-width="18"/>
<path d="M382 326H118C113.029 326 109 330.029 109 335C109 339.971 113.029 344 118 344H382C386.971 344 391 339.971 391 335C391 330.029 386.971 326 382 326Z" stroke="#009966" stroke-width="18"/>
</svg>
