<svg width="400" height="400" viewBox="0 0 400 400" fill="none" xmlns="http://www.w3.org/2000/svg">
<path d="M48 18H352C368.569 18 382 31.4315 382 48V352C382 368.569 368.569 382 352 382H48C31.4315 382 18 368.569 18 352V48C18 31.4315 31.4315 18 48 18Z" stroke="#009966" stroke-width="36"/>
<mask id="path-2-inside-1_58_2" fill="white">
<path d="M85 200C85 190.059 93.0589 182 103 182H177C186.941 182 195 190.059 195 200V200C195 209.941 186.941 218 177 218H103C93.0589 218 85 209.941 85 200V200Z"/>
</mask>
<path d="M103 218H177V146H103V218ZM177 182H103V254H177V182ZM103 182C112.941 182 121 190.059 121 200H49C49 229.823 73.1766 254 103 254V182ZM159 200C159 190.059 167.059 182 177 182V254C206.823 254 231 229.823 231 200H159ZM177 218C167.059 218 159 209.941 159 200H231C231 170.177 206.823 146 177 146V218ZM103 146C73.1766 146 49 170.177 49 200H121C121 209.941 112.941 218 103 218V146Z" fill="#009966" mask="url(#path-2-inside-1_58_2)"/>
<mask id="path-4-inside-2_58_2" fill="white">
<path d="M85 290C85 280.059 93.0589 272 103 272H177C186.941 272 195 280.059 195 290V290C195 299.941 186.941 308 177 308H103C93.0589 308 85 299.941 85 290V290Z"/>
</mask>
<path d="M103 308H177V236H103V308ZM177 272H103V344H177V272ZM103 272C112.941 272 121 280.059 121 290H49C49 319.823 73.1766 344 103 344V272ZM159 290C159 280.059 167.059 272 177 272V344C206.823 344 231 319.823 231 290H159ZM177 308C167.059 308 159 299.941 159 290H231C231 260.177 206.823 236 177 236V308ZM103 236C73.1766 236 49 260.177 49 290H121C121 299.941 112.941 308 103 308V236Z" fill="#009966" mask="url(#path-4-inside-2_58_2)"/>
<mask id="path-6-inside-3_58_2" fill="white">
<path d="M85 110C85 100.059 93.0589 92 103 92H297C306.941 92 315 100.059 315 110V110C315 119.941 306.941 128 297 128H103C93.0589 128 85 119.941 85 110V110Z"/>
</mask>
<path d="M103 128H297V56H103V128ZM297 92H103V164H297V92ZM103 92C112.941 92 121 100.059 121 110H49C49 139.823 73.1766 164 103 164V92ZM279 110C279 100.059 287.059 92 297 92V164C326.823 164 351 139.823 351 110H279ZM297 128C287.059 128 279 119.941 279 110H351C351 80.1766 326.823 56 297 56V128ZM103 56C73.1766 56 49 80.1766 49 110H121C121 119.941 112.941 128 103 128V56Z" fill="#009966" mask="url(#path-6-inside-3_58_2)"/>
</svg>
