<svg width="400" height="400" viewBox="0 0 400 400" fill="none" xmlns="http://www.w3.org/2000/svg">
<path d="M48 18H352C368.569 18 382 31.4315 382 48V352C382 368.569 368.569 382 352 382H48C31.4315 382 18 368.569 18 352V48C18 31.4315 31.4315 18 48 18Z" stroke="#009966" stroke-width="36"/>
<path d="M299.234 101H100.766C97.0292 101 94 104.806 94 109.5C94 114.194 97.0292 118 100.766 118H299.234C302.971 118 306 114.194 306 109.5C306 104.806 302.971 101 299.234 101Z" stroke="#009966" stroke-width="18"/>
<path d="M301.005 191H98.9948C96.2362 191 94 194.806 94 199.5C94 204.194 96.2362 208 98.9948 208H301.005C303.764 208 306 204.194 306 199.5C306 194.806 303.764 191 301.005 191Z" stroke="#009966" stroke-width="18"/>
<path d="M217.915 281H98.0851C95.829 281 94 284.806 94 289.5C94 294.194 95.829 298 98.0851 298H217.915C220.171 298 222 294.194 222 289.5C222 284.806 220.171 281 217.915 281Z" stroke="#009966" stroke-width="18"/>
</svg>
