<svg width="400" height="400" viewBox="0 0 400 400" fill="none" xmlns="http://www.w3.org/2000/svg">
    <path d="M 200.257 382.284 C 300.773 382.284 382.257 300.8 382.257 200.284 C 382.257 99.768 300.773 18.284 200.257 18.284 C 99.741 18.284 18.257 99.768 18.257 200.284 C 18.257 300.8 99.741 382.284 200.257 382.284 Z" stroke="#009966" stroke-width="36" stroke-linecap="round" stroke-linejoin="round" style="fill-opacity: 0;"></path>
    <path fill-rule="evenodd" clip-rule="evenodd" d="M 200.257 115.284 L 200.257 113.807 L 200.257 29.284 C 118.151 38.248 29.757 108.292 29.757 192.784 C 29.757 277.276 118.151 378.821 200.257 387.784 L 200.257 285.284 C 152.456 280.611 115.257 244.338 115.257 200.284 C 115.257 156.23 152.456 119.958 200.257 115.284 Z" fill="white"></path>
    <path fill-rule="evenodd" clip-rule="evenodd" d="M 200.563 115.776 L 200.563 113.842 L 200.563 25.167 C 115.011 34.134 22.91 108.325 22.91 192.852 C 22.91 277.379 115.011 378.966 200.563 387.933 L 200.563 284.579 C 150.756 279.904 115.911 244.541 115.911 200.469 C 115.911 156.397 150.756 120.452 200.563 115.776 Z" fill="#009966" style=""></path>
    <path d="M 218.257 160.448 L 218.257 140.284 C 247.805 149.973 267.257 174.104 267.257 200.284 C 267.257 226.464 247.805 250.054 218.257 259.743 L 218.257 239.373 L 218.257 222.86 L 218.257 195.961 L 218.257 160.448 Z" fill="#009966" stroke="#009966" stroke-width="36" stroke-miterlimit="16" stroke-linecap="round"></path>
</svg>
