<svg width="400" height="400" viewBox="0 0 400 400" fill="none" xmlns="http://www.w3.org/2000/svg">
<g clip-path="url(#clip0_0_1)">
<path d="M336.5 346C336.5 365.882 320.382 382 300.5 382H99.5C79.618 382 63.5 365.882 63.5 346V54C63.5 34.118 79.618 18 99.5 18H186C206 18 222.2 34 222.2 54V102C222.2 122 234.2 132.8 254.2 132.8H300.5C325.5 132.8 336.5 148.8 336.5 168.8V346Z" stroke="#009966" stroke-width="36" stroke-linecap="round" stroke-linejoin="round"/>
<path d="M335.447 121.943L336.371 164.401L335.447 121.943ZM230.936 18.037L335.38 121.966L230.936 18.037ZM186.785 17.732L230.899 18L186.785 17.732Z" fill="#D8D8D8"/>
<path d="M186.785 17.732L230.899 18M335.447 121.943L336.371 164.401L335.447 121.943ZM230.936 18.037L335.38 121.966L230.936 18.037Z" stroke="#009966" stroke-width="36" stroke-linecap="round" stroke-linejoin="round"/>
<path d="M135 212.603L265 212" stroke="#009966" stroke-width="36" stroke-linecap="round" stroke-linejoin="round"/>
<path d="M135 296.088L207 295.662" stroke="#009966" stroke-width="36" stroke-linecap="round" stroke-linejoin="round"/>
</g>
<defs>
<clipPath id="clip0_0_1">
<rect width="400" height="400" fill="white"/>
</clipPath>
</defs>
</svg>
