<svg width="400" height="400" viewBox="0 0 400 400" fill="none" xmlns="http://www.w3.org/2000/svg">
<g clip-path="url(#clip0_205_2)">
<path d="M186.785 17.7319L230.899 17.9999M335.447 121.943L336.371 164.401M230.936 18.0369L335.38 121.966M336.5 346C336.5 365.882 320.382 382 300.5 382H99.5C79.618 382 63.5 365.882 63.5 346V54C63.5 34.118 79.618 18 99.5 18H186C206 18 222.2 34 222.2 54V112C222.2 132 223.2 132.8 243.2 132.8H300.5C325.5 132.8 336.5 148.8 336.5 168.8V346Z" stroke="#009966" stroke-width="36" stroke-linecap="round" stroke-linejoin="round"/>
<path d="M162.562 295.948L217.716 240.794" stroke="#009966" stroke-width="36" stroke-linecap="round" stroke-linejoin="round"/>
<path d="M237.924 279.984L237.669 221.587" stroke="#009966" stroke-width="36" stroke-linecap="round" stroke-linejoin="round"/>
<path d="M179.234 221.549L237.631 221.294" stroke="#009966" stroke-width="36" stroke-linecap="round" stroke-linejoin="round"/>
</g>
<defs>
<clipPath id="clip0_205_2">
<rect width="400" height="400" fill="white"/>
</clipPath>
</defs>
</svg>
