<svg xmlns="http://www.w3.org/2000/svg" viewBox="0 0 400 400" stroke='#009966' stroke-width="36px" stroke-linecap="round" stroke-linejoin="round" fill="none">
  <path d="M 21.907 199.986 L 141.907 199.464" data-bx-origin="1.001 1.532" transform="matrix(0.707107, -0.707107, 0.707107, 0.707107, -100.009074, 159.084142)"></path>
  <path d="M 22.144 200.267 L 142.144 199.744" data-bx-origin="0.996906 -1.033458" transform="matrix(0.707107, 0.707107, -0.707107, 0.707107, 182.382421, -41.903096)"></path>
  <path d="M 121.907 199.986 L 241.907 199.464" data-bx-origin="1.001 1.532" transform="matrix(0.707107, -0.707107, 0.707107, 0.707107, -70.719752, 229.794822)"></path>
  <path d="M 122.144 200.267 L 242.144 199.744" data-bx-origin="0.996906 -1.033458" transform="matrix(0.707107, 0.707107, -0.707107, 0.707107, 211.671744, -112.613773)"></path>
  <path d="M 223.73 199.986 L 343.73 199.464" data-bx-origin="1.001 1.532" transform="matrix(0.707107, -0.707107, 0.707107, 0.707107, -40.896478, 301.794565)"></path>
  <path d="M 223.967 200.267 L 343.967 199.744" data-bx-origin="0.996906 -1.033458" transform="matrix(0.707107, 0.707107, -0.707107, 0.707107, 241.495018, -184.613516)"></path>
</svg>