<svg xmlns="http://www.w3.org/2000/svg" width="400" height="400" viewBox="0 0 400 400" stroke='#009966' stroke-width="32px" stroke-linecap="round" stroke-linejoin="round" fill="none">
    <path d="M 264 80 C 264 90.841 261.305 101.052 256.547 110 L 143.453 110 C 138.695 101.052 136 90.841 136 80 C 136 44.654 164.654 16 200 16 C 235.346 16 264 44.654 264 80 Z"></path>
    <path d="M 291.277 316.399 C 291.277 340.546 287.434 363.288 280.649 383.216 L 119.354 383.216 C 112.567 363.288 108.724 340.546 108.724 316.399 C 108.724 237.677 149.591 173.857 200.001 173.857 C 250.412 173.857 291.277 237.677 291.277 316.399 Z" transform="matrix(-1, 0, 0, -1, 400.001007, 557.072998)"></path>
    <path d="M 39.067 173.76 L 119.067 173.76" data-bx-origin="0.999162 0" transform="matrix(0.707107, 0.707107, -0.707107, 0.707107, 157.721146, -33.252556)"></path>
    <path d="M 200.039 173.568 L 280.039 173.568" data-bx-origin="0.999162 0" transform="matrix(-0.707107, 0.707107, -0.707107, -0.707107, 600.673157, 98.329025)"></path>
    <path d="M 200.553 326.667 L 280.553 326.667" data-bx-origin="0.999162 0" transform="matrix(-0.707107, -0.707107, 0.707107, -0.707107, 247.831055, 755.988953)"></path>
    <path d="M 39.581 326.859 L 119.581 326.859" data-bx-origin="0.999162 0" transform="matrix(0.707107, -0.707107, 0.707107, 0.707107, -196.1194, 180.243927)"></path>
      <path  d="M 66.784 382.89 L 200.11 382.89" data-bx-origin="0.999162 0" transform="matrix(0, 1, -1, 0, 582.888306, 182.891739)"></path>
   <path d="M 228.72 229.904 L 296.423 229.904" data-bx-origin="0.98 0" transform="matrix(-1, 0, 0, -1, 590.137878, 459.808014)"></path>
    <path d="M 38.581 230.096 L 106.915 230.096" data-bx-origin="0.999162 0"></path>
</svg>