<svg xmlns="http://www.w3.org/2000/svg" width="400" height="400" viewBox="0 0 400 400" stroke='#009966' stroke-width="32px" stroke-linecap="round" stroke-linejoin="round" fill="none">
  <path d="M 264 80 C 264 90.841 261.305 101.052 256.547 110 L 143.453 110 C 138.695 101.052 136 90.841 136 80 C 136 44.654 164.654 16 200 16 C 235.346 16 264 44.654 264 80 Z"></path>
  <path d="M 291.277 302.896 C 291.277 324.695 287.434 345.226 280.649 363.216 L 119.354 363.216 C 112.567 345.226 108.724 324.695 108.724 302.896 C 108.724 231.83 149.591 174.216 200.001 174.216 C 250.412 174.216 291.277 231.83 291.277 302.896 Z" transform="matrix(-1, 0, 0, -1, 400.001013, 537.432015)"></path>
  <path d="M 39.067 173.76 L 119.067 173.76" data-bx-origin="0.999162 0" transform="matrix(0.707107, 0.707107, -0.707107, 0.707107, 157.721148, -33.252556)"></path>
  <path d="M 200.039 173.568 L 280.039 173.568" data-bx-origin="0.999162 0" transform="matrix(-0.707107, 0.707107, -0.707107, -0.707107, 600.673166, 98.329027)"></path>
  <path d="M 200.553 326.667 L 280.553 326.667" data-bx-origin="0.999162 0" transform="matrix(-0.707107, -0.707107, 0.707107, -0.707107, 247.831059, 755.988965)"></path>
  <path d="M 39.581 326.859 L 119.581 326.859" data-bx-origin="0.999162 0" transform="matrix(0.707107, -0.707107, 0.707107, 0.707107, -196.119403, 180.24393)"></path>
  <path d="M 81.837 362.903 L 200.097 362.903" data-bx-origin="0.999162 0" style="" transform="matrix(0, 1, -1, 0, 562.900949, 162.905123)"></path>
  <path d="M 228.72 243.904 L 296.423 243.904" data-bx-origin="0.98 0" transform="matrix(-1, 0, 0, -1, 590.137888, 487.808022)"></path>
  <path d="M 38.581 244.096 L 106.915 244.096" data-bx-origin="0.999162 0"></path>
</svg>