<svg xmlns="http://www.w3.org/2000/svg"  viewBox="0 0 400 400" stroke='#009966' stroke-width="36px" stroke-linecap="round" stroke-linejoin="round" fill="none">
  <path d="M 263.411 81.411 C 263.411 92.152 260.741 102.269 256.027 111.135 L 143.973 111.135 C 139.259 102.269 136.589 92.152 136.589 81.411 C 136.589 46.39 164.979 18 200 18 C 235.021 18 263.411 46.39 263.411 81.411 Z"></path>
  <path d="M 290.437 302.256 C 290.437 323.855 286.629 344.197 279.907 362.021 L 120.096 362.021 C 113.371 344.197 109.564 323.855 109.564 302.256 C 109.564 231.844 150.055 174.76 200.001 174.76 C 249.948 174.76 290.437 231.844 290.437 302.256 Z" transform="matrix(-1, 0, 0, -1, 400.001007, 536.781006)"></path>
  <path d="M 40.547 174.309 L 119.811 174.309" data-bx-origin="0.999162 0" transform="matrix(0.707107, 0.707107, -0.707107, 0.707107, 158.327454, -33.618271)"></path>
  <path d="M 200.038 174.118 L 279.302 174.118" data-bx-origin="0.999162 0" transform="matrix(-0.707107, 0.707107, -0.707107, -0.707107, 599.804993, 99.788643)"></path>
  <path d="M 200.548 325.808 L 279.812 325.808" data-bx-origin="0.999162 0" transform="matrix(-0.707107, -0.707107, 0.707107, -0.707107, 247.17453, 753.999084)"></path>
  <path d="M 41.057 325.999 L 120.321 325.999" data-bx-origin="0.999162 0" transform="matrix(0.707107, -0.707107, 0.707107, 0.707107, -195.294342, 180.515717)"></path>
  <path d="M 91.738 361.718 L 200.089 361.718" data-bx-origin="0.999162 0" style="" transform="matrix(0, 1, -1, 0, 561.716187, 161.719788)"></path>
  <path d="M 218.367 243.807 L 295.65 243.807" data-bx-origin="0.98 0" transform="matrix(-1, 0, 0, -1, 588.208679, 487.614014)"></path>
  <path d="M 30.158 243.997 L 107.44 243.997" data-bx-origin="0.999162 0"></path>
</svg>