<svg width="400" height="400" viewBox="0 0 400 400" fill="none" xmlns="http://www.w3.org/2000/svg">
<path d="M46 218C55.9411 218 64 209.941 64 200C64 190.059 55.9411 182 46 182C36.0589 182 28 190.059 28 200C28 209.941 36.0589 218 46 218Z" fill="#46484f" stroke="#46484f" stroke-width="36"/>
<path d="M354 218C363.941 218 372 209.941 372 200C372 190.059 363.941 182 354 182C344.059 182 336 190.059 336 200C336 209.941 344.059 218 354 218Z" fill="#46484f" stroke="#46484f" stroke-width="36"/>
<path d="M200 218C209.941 218 218 209.941 218 200C218 190.059 209.941 182 200 182C190.059 182 182 190.059 182 200C182 209.941 190.059 218 200 218Z" fill="#46484f" stroke="#46484f" stroke-width="36"/>
<path d="M46 66C55.9411 66 64 57.9411 64 48C64 38.0589 55.9411 30 46 30C36.0589 30 28 38.0589 28 48C28 57.9411 36.0589 66 46 66Z" fill="#46484f" stroke="#46484f" stroke-width="36"/>
<path d="M354 66C363.941 66 372 57.9411 372 48C372 38.0589 363.941 30 354 30C344.059 30 336 38.0589 336 48C336 57.9411 344.059 66 354 66Z" fill="#46484f" stroke="#46484f" stroke-width="36"/>
<path d="M200 66C209.941 66 218 57.9411 218 48C218 38.0589 209.941 30 200 30C190.059 30 182 38.0589 182 48C182 57.9411 190.059 66 200 66Z" fill="#46484f" stroke="#46484f" stroke-width="36"/>
<path d="M46 370C55.9411 370 64 361.941 64 352C64 342.059 55.9411 334 46 334C36.0589 334 28 342.059 28 352C28 361.941 36.0589 370 46 370Z" fill="#46484f" stroke="#46484f" stroke-width="36"/>
<path d="M354 370C363.941 370 372 361.941 372 352C372 342.059 363.941 334 354 334C344.059 334 336 342.059 336 352C336 361.941 344.059 370 354 370Z" fill="#46484f" stroke="#46484f" stroke-width="36"/>
<path d="M200 370C209.941 370 218 361.941 218 352C218 342.059 209.941 334 200 334C190.059 334 182 342.059 182 352C182 361.941 190.059 370 200 370Z" fill="#46484f" stroke="#46484f" stroke-width="36"/>
</svg>
